<svg xmlns="http://www.w3.org/2000/svg" viewBox="0 0 1600 900" role="img" aria-labelledby="t d"><title id="t">Hammamet w Tunezji</title><desc id="d">Ilustracyjny nadmorski krajobraz Hammametu z plażą, morzem, palmami i białą zabudową.</desc><defs><linearGradient id="sky" x1="0" y1="0" x2="0" y2="1"><stop stop-color="#77c9e8"/><stop offset="1" stop-color="#dff4f7"/></linearGradient><linearGradient id="sea" x1="0" y1="0" x2="1" y2="1"><stop stop-color="#33b5c5"/><stop offset="1" stop-color="#0d7f91"/></linearGradient><linearGradient id="sand" x1="0" y1="0" x2="1" y2="0"><stop stop-color="#f6d49a"/><stop offset="1" stop-color="#f3c37b"/></linearGradient></defs><rect width="1600" height="900" fill="url(#sky)"/><circle cx="1320" cy="155" r="72" fill="#ffd779" opacity=".95"/><path d="M0 420 C300 360 560 410 820 390 S1280 330 1600 390 V900 H0Z" fill="url(#sea)"/><path d="M0 610 C300 520 620 545 880 600 S1310 690 1600 620 V900 H0Z" fill="url(#sand)"/><g fill="#fff"><rect x="100" y="350" width="145" height="105" rx="5"/><rect x="260" y="320" width="180" height="140" rx="6"/><rect x="465" y="345" width="125" height="115" rx="6"/><rect x="1080" y="330" width="150" height="120" rx="6"/><rect x="1245" y="300" width="210" height="150" rx="6"/></g><g fill="#1d7f77"><rect x="286" y="348" width="35" height="50"/><rect x="339" y="348" width="35" height="50"/><rect x="1282" y="334" width="40" height="54"/><rect x="1342" y="334" width="40" height="54"/></g><g stroke="#7d4d2c" stroke-width="18" stroke-linecap="round"><path d="M720 615 Q735 475 760 330"/><path d="M925 640 Q930 495 950 360"/></g><g fill="#2f8b6a"><path d="M758 335 q-95 15-140 80 q92-18 150 2 q-20-55-10-82Z"/><path d="M760 338 q90-10 145 60 q-90-7-150 22 q18-52 5-82Z"/><path d="M948 362 q-90 14-135 74 q85-12 142 12 q-15-51-7-86Z"/><path d="M950 365 q86-5 135 58 q-83-2-138 23 q17-48 3-81Z"/></g><g fill="#fff" opacity=".95"><path d="M560 650 q95-55 190 0 q-95 25-190 0Z"/><path d="M1000 705 q85-48 170 0 q-85 23-170 0Z"/></g><text x="86" y="120" font-family="system-ui,Segoe UI,sans-serif" font-size="42" font-weight="800" fill="#144b49">HAMMAMET</text><text x="88" y="162" font-family="system-ui,Segoe UI,sans-serif" font-size="22" fill="#245f5a">plaża · medyna · Yasmine</text></svg>