<svg xmlns="http://www.w3.org/2000/svg" viewBox="0 0 1600 900"><defs><linearGradient id="sky" x1="0" y1="0" x2="0" y2="1"><stop stop-color="#87d4ee"/><stop offset="1" stop-color="#eefbff"/></linearGradient><linearGradient id="sea" x1="0" y1="0" x2="1" y2="0"><stop stop-color="#38b9c8"/><stop offset="1" stop-color="#147f8e"/></linearGradient></defs><rect width="1600" height="900" fill="url(#sky)"/><circle cx="1325" cy="150" r="80" fill="#ffd16d"/><path d="M0 430Q350 365 730 410T1600 405V900H0Z" fill="url(#sea)"/><path d="M0 650Q380 555 760 625T1600 665V900H0Z" fill="#f1d39b"/><g fill="#fff"><rect x="120" y="330" width="230" height="150" rx="8"/><rect x="380" y="305" width="170" height="175" rx="8"/><rect x="1090" y="330" width="250" height="150" rx="8"/></g><g fill="#167d75"><rect x="180" y="370" width="55" height="74"/><rect x="430" y="355" width="52" height="76"/><rect x="1160" y="370" width="60" height="74"/></g><path d="M760 650Q775 470 795 325" stroke="#7b4d2b" stroke-width="20" stroke-linecap="round"/><g fill="#2f8b6a"><path d="M794 325q-105 18-160 88 100-22 165 6-20-58-5-94Z"/><path d="M798 328q100-10 160 62-98-6-164 29 20-58 4-91Z"/></g><text x="90" y="120" font-family="system-ui" font-size="48" font-weight="800" fill="#134e4a">TUNEZJA</text><text x="92" y="166" font-family="system-ui" font-size="24" fill="#315f65">regiony · plaże · praktyczne wskazówki</text></svg>